<svg width="1257" height="1202" viewBox="0 0 1257 1202" fill="none" xmlns="http://www.w3.org/2000/svg">
<path fill-rule="evenodd" clip-rule="evenodd" d="M783.755 136.716C783.755 211.993 722.731 273.017 647.454 273.017L330.721 273.017C298.68 273.017 272.706 298.991 272.707 331.032C272.707 363.072 298.681 389.046 330.721 389.046L593.166 389.046C598.322 388.454 603.566 388.15 608.881 388.15L925.93 388.15C1108.52 388.15 1256.55 536.171 1256.55 718.765C1256.55 901.359 1108.52 1049.38 925.93 1049.38L638.007 1049.38C633.356 1049.38 628.759 1049.15 624.228 1048.69L331.88 1048.69C299.84 1048.69 273.866 1074.67 273.866 1106.71C273.866 1138.75 299.84 1164.72 331.88 1164.72L765.914 1164.72C841.191 1164.72 902.215 1225.75 902.215 1301.02C902.215 1376.3 841.191 1437.32 765.914 1437.32L331.88 1437.32C149.287 1437.32 1.26502 1289.3 1.26459 1106.71C1.26407 924.115 149.286 776.093 331.88 776.092L648.242 776.092C652.894 776.092 657.491 776.325 662.022 776.78L925.93 776.78C957.97 776.78 983.945 750.806 983.944 718.765C983.944 686.725 957.97 660.751 925.93 660.751L629.928 660.751C624.771 661.343 619.527 661.647 614.212 661.647L330.721 661.647C148.128 661.647 0.105978 513.626 0.105482 331.032C0.105015 148.438 148.127 0.415785 330.721 0.415799L647.454 0.415826C722.731 0.415854 783.755 61.4397 783.755 136.716Z" fill="#18CDAC"/>
</svg>
