<svg width="786" height="670" viewBox="0 0 786 670" fill="none" xmlns="http://www.w3.org/2000/svg">
<path fill-rule="evenodd" clip-rule="evenodd" d="M414.724 34.0999C457.502 76.8997 457.502 146.292 414.724 189.092L234.734 369.175C216.526 387.393 216.526 416.929 234.734 435.146C252.941 453.363 282.462 453.363 300.67 435.146L597.005 138.657C639.783 95.857 709.139 95.857 751.917 138.657C794.694 181.457 794.694 250.849 751.917 293.649L455.581 590.138C351.818 693.954 183.586 693.954 79.8227 590.138C-23.9407 486.321 -23.9411 318.001 79.8222 214.184L259.813 34.0999C302.59 -8.69989 371.947 -8.69988 414.724 34.0999Z" stroke="#18CDAC" stroke-opacity="0.4" stroke-width="4" stroke-linecap="round" stroke-linejoin="round"/>
</svg>
