<svg width="786" height="670" viewBox="0 0 786 670" fill="none" xmlns="http://www.w3.org/2000/svg">
<path fill-rule="evenodd" clip-rule="evenodd" d="M371.276 635.9C328.498 593.1 328.498 523.708 371.276 480.908L551.266 300.825C569.474 282.607 569.474 253.071 551.266 234.854C533.059 216.637 503.538 216.637 485.33 234.854L188.995 531.343C146.217 574.143 76.8607 574.143 34.0831 531.343C-8.6944 488.543 -8.69436 419.151 34.0833 376.351L330.419 79.8625C434.182 -23.954 602.414 -23.9542 706.177 79.8621C809.941 183.679 809.941 351.999 706.178 455.816L526.187 635.9C483.41 678.7 414.053 678.7 371.276 635.9Z" stroke="#18CDAC" stroke-opacity="0.4" stroke-width="4" stroke-linecap="round" stroke-linejoin="round"/>
</svg>
