<svg width="18" height="12" viewBox="0 0 18 12" fill="none" xmlns="http://www.w3.org/2000/svg">
<path d="M0.667321 6.41711L0.667321 5.58378C0.667321 5.35366 0.853869 5.16711 1.08399 5.16711L14.559 5.16712L10.8507 1.46712C10.7718 1.38888 10.7274 1.28238 10.7274 1.17128C10.7274 1.06018 10.7718 0.953686 10.8507 0.875449L11.4423 0.292116C11.5206 0.213235 11.6271 0.168866 11.7382 0.168866C11.8493 0.168866 11.9558 0.213235 12.034 0.292116L17.1507 5.40045C17.2679 5.51755 17.3338 5.67641 17.334 5.84212L17.334 6.15878C17.3321 6.32413 17.2664 6.48235 17.1507 6.60045L12.034 11.7088C11.9557 11.7877 11.8493 11.832 11.7382 11.832C11.6271 11.832 11.5206 11.7877 11.4423 11.7088L10.8507 11.1171C10.7723 11.0403 10.7281 10.9352 10.7281 10.8254C10.7281 10.7157 10.7723 10.6106 10.8507 10.5338L14.559 6.83378L1.08399 6.83378C0.853869 6.83378 0.667321 6.64723 0.667321 6.41711Z" fill="#F7655E"/>
</svg>
