<svg width="18" height="12" viewBox="0 0 18 12" fill="none" xmlns="http://www.w3.org/2000/svg">
<path d="M0.666344 6.38269L0.666344 5.54936C0.666344 5.31924 0.852893 5.13269 1.08301 5.13269L14.558 5.13269L10.8497 1.43269C10.7708 1.35446 10.7264 1.24796 10.7264 1.13686C10.7264 1.02576 10.7708 0.919261 10.8497 0.841026L11.4413 0.257692C11.5196 0.178812 11.6261 0.134442 11.7372 0.134442C11.8483 0.134442 11.9548 0.178812 12.033 0.257692L17.1497 5.36603C17.2669 5.48312 17.3329 5.64199 17.333 5.80769L17.333 6.12436C17.3311 6.2897 17.2654 6.44793 17.1497 6.56603L12.033 11.6744C11.9548 11.7532 11.8483 11.7976 11.7372 11.7976C11.6261 11.7976 11.5196 11.7532 11.4413 11.6744L10.8497 11.0827C10.7713 11.0059 10.7271 10.9008 10.7271 10.791C10.7271 10.6813 10.7713 10.5762 10.8497 10.4994L14.558 6.79936L1.08301 6.79936C0.852892 6.79936 0.666344 6.61281 0.666344 6.38269Z" fill="#00413A"/>
</svg>
