<svg width="95" height="37" viewBox="0 0 95 37" fill="none" xmlns="http://www.w3.org/2000/svg">
<path fill-rule="evenodd" clip-rule="evenodd" d="M40.8685 17.4347C40.9 17.4715 40.9334 17.507 40.9689 17.5411C41.0047 17.5769 41.0415 17.6106 41.0796 17.6421C41.3457 17.8631 41.6653 17.9787 42.0117 17.9787H42.045C42.4408 17.9787 42.8017 17.8276 43.0812 17.5477C43.2993 17.3382 43.4402 17.0815 43.4969 16.7943C43.5159 16.6987 43.5254 16.5996 43.5254 16.4978V1.97521C43.5254 1.92485 43.523 1.87497 43.5183 1.82589C43.4948 1.58004 43.4124 1.35097 43.2741 1.14692C43.2463 1.10608 43.2165 1.06621 43.1843 1.02746C43.1522 0.988724 43.1178 0.950948 43.0812 0.914305C43.0794 0.912691 43.0775 0.911236 43.0757 0.909624C43.0426 0.878145 43.0082 0.848279 42.9724 0.820192C42.9595 0.810182 42.9457 0.801788 42.9327 0.792263C42.907 0.773539 42.8816 0.75465 42.8549 0.737702C42.8392 0.727692 42.8227 0.71946 42.8067 0.710259C42.7812 0.695406 42.7562 0.680232 42.7299 0.666994C42.7126 0.658116 42.6944 0.651013 42.6766 0.642782C42.6508 0.630996 42.6253 0.618729 42.599 0.608396C42.5801 0.600972 42.5607 0.59532 42.5417 0.588701C42.5154 0.5795 42.4895 0.569976 42.4627 0.562229C42.443 0.556416 42.4227 0.55238 42.4027 0.547376C42.3761 0.540919 42.3496 0.533816 42.3226 0.528652C42.302 0.524616 42.281 0.522356 42.26 0.519126C42.2334 0.515092 42.2067 0.510572 42.1799 0.507987C42.1584 0.50589 42.1368 0.505243 42.1152 0.504114C42.0885 0.502499 42.0619 0.500561 42.0351 0.5004C42.0314 0.500238 42.0277 0.499756 42.024 0.499756C42.0035 0.499756 41.9831 0.501693 41.9626 0.502498C41.9394 0.503467 41.9163 0.503792 41.8931 0.505727C41.8685 0.507664 41.8441 0.511539 41.8196 0.514767C41.7968 0.517836 41.7741 0.520096 41.7513 0.524132C41.7266 0.52849 41.7023 0.534623 41.6777 0.540274C41.6554 0.545439 41.6332 0.549636 41.611 0.555772C41.5863 0.562552 41.5621 0.571269 41.5378 0.579339C41.5163 0.586441 41.4945 0.592737 41.4732 0.60081C41.4483 0.610333 41.4241 0.621956 41.3996 0.632933C41.3794 0.641812 41.3591 0.649723 41.3392 0.65973C41.3137 0.672485 41.2892 0.687335 41.2643 0.701542C41.2461 0.712033 41.2275 0.721236 41.2096 0.732536C41.1833 0.749162 41.1578 0.768373 41.1322 0.786776C41.1168 0.797915 41.1008 0.80776 41.0858 0.819706C41.0494 0.847956 41.0144 0.878952 40.98 0.911236C40.9765 0.914789 40.9724 0.917532 40.9689 0.921085C40.7543 1.13546 40.6155 1.39439 40.5593 1.68061C40.5501 1.72823 40.543 1.77666 40.5384 1.82589C40.5337 1.87497 40.5312 1.92485 40.5312 1.97521V16.4978C40.5312 16.6505 40.5529 16.797 40.5948 16.9349C40.6507 17.1188 40.7429 17.2873 40.8685 17.4347Z" fill="#00413A"/>
<path fill-rule="evenodd" clip-rule="evenodd" d="M54.5318 14.0012C54.024 14.514 53.4467 14.8293 52.781 14.9549C52.5592 14.9967 52.3274 15.0175 52.0852 15.0175C51.964 15.0175 51.8453 15.0124 51.7291 15.0019C50.9163 14.9289 50.2265 14.5991 49.6291 14.0012C49.5442 13.9155 49.4646 13.828 49.3907 13.7387C48.8723 13.113 48.6193 12.3942 48.6193 11.5517C48.6193 11.2114 48.6623 10.8924 48.7445 10.5907C48.7793 10.4625 48.8192 10.3366 48.8691 10.2149C48.9109 10.1128 48.9582 10.0131 49.0106 9.91542C49.0931 9.7619 49.1929 9.61516 49.302 9.47181C49.4013 9.34138 49.5075 9.21369 49.6291 9.09116C49.8 8.92021 49.9784 8.77121 50.1652 8.64385C50.3518 8.51664 50.5468 8.4109 50.7505 8.32664C51.1581 8.15794 51.6011 8.07481 52.0852 8.07481C52.5697 8.07481 53.012 8.15794 53.4181 8.3268C53.8243 8.49549 54.1941 8.75006 54.5338 9.09262C54.541 9.09988 54.5468 9.10763 54.5541 9.11489C54.9703 9.53719 55.2549 10.0045 55.4097 10.5282C55.4728 10.7411 55.5146 10.9634 55.5354 11.1957C55.5458 11.3118 55.5511 11.4304 55.5511 11.5517C55.5511 12.3937 55.2965 13.1122 54.7728 13.7384C54.6979 13.8278 54.6177 13.9155 54.5318 14.0012ZM58.427 10.2331C58.1888 8.99318 57.5948 7.89352 56.6527 6.95142C56.3389 6.63745 56.0075 6.36221 55.6591 6.12572C55.5721 6.06663 55.4839 6.00997 55.3947 5.95589C54.4135 5.35958 53.3056 5.05835 52.0852 5.05835C50.8655 5.05835 49.7581 5.35958 48.7766 5.95589C48.6875 6.00997 48.5993 6.06663 48.5122 6.12572C48.2061 6.33331 47.9141 6.57255 47.6343 6.84004C47.5954 6.87717 47.556 6.91317 47.5176 6.95142C46.8896 7.57971 46.4165 8.27789 46.1004 9.04096C46.0213 9.23161 45.9521 9.42645 45.8927 9.62517C45.8334 9.82405 45.7838 10.0268 45.7441 10.2333C45.6649 10.6465 45.625 11.0753 45.625 11.5191C45.625 11.63 45.6276 11.7399 45.6326 11.8489C45.6524 12.285 45.712 12.7062 45.8111 13.1115C45.893 13.4468 46.0034 13.7708 46.1392 14.0842C46.4547 14.813 46.9138 15.4825 47.5176 16.0865C48.0676 16.636 48.671 17.067 49.3243 17.3781C49.6044 17.5112 49.8937 17.6226 50.1918 17.7117C50.3687 17.7647 50.5495 17.8084 50.7329 17.8457C50.7701 17.8533 50.807 17.8609 50.8445 17.8677C51.2439 17.9416 51.6574 17.9795 52.0852 17.9795C52.7508 17.9795 53.3831 17.89 53.9794 17.7117C54.2777 17.6226 54.567 17.5112 54.8471 17.3781C55.5004 17.067 56.1037 16.636 56.6527 16.0865C57.2806 15.4586 57.7541 14.7604 58.0705 13.9973C58.3077 13.4252 58.4567 12.8165 58.5164 12.1733C58.5362 11.9589 58.5462 11.7409 58.5462 11.5191C58.5462 11.0753 58.5064 10.6464 58.427 10.2331Z" fill="#00413A"/>
<path fill-rule="evenodd" clip-rule="evenodd" d="M63.4274 10.8545C63.4689 10.6318 63.5314 10.4189 63.6152 10.2149C63.657 10.1128 63.7041 10.0131 63.7567 9.91542C63.9143 9.62227 64.12 9.34848 64.375 9.09133C64.546 8.92021 64.7245 8.77121 64.9111 8.64385C65.0979 8.51664 65.2927 8.4109 65.4966 8.32664C65.9041 8.15795 66.3472 8.07481 66.8311 8.07481C67.3158 8.07481 67.7581 8.15794 68.1642 8.3268C68.5702 8.49549 68.9402 8.75007 69.2797 9.09262C69.6223 9.43517 69.8765 9.80743 70.0452 10.2155C70.1718 10.5214 70.2502 10.8473 70.2814 11.1957C70.2919 11.3118 70.297 11.4304 70.297 11.5517C70.297 11.7922 70.2764 12.0227 70.2344 12.2439C70.1716 12.5756 70.0612 12.8862 69.9022 13.1784C69.8263 13.3177 69.7353 13.4514 69.6371 13.5826C69.5296 13.7263 69.4126 13.8666 69.2779 14.0012C69.1086 14.1721 68.9315 14.3211 68.7462 14.4485C68.3752 14.7032 67.9708 14.8713 67.5271 14.9549C67.3051 14.9967 67.0735 15.0175 66.8311 15.0175C66.5887 15.0175 66.3567 14.9967 66.1343 14.9549C65.4671 14.8292 64.8872 14.5137 64.375 14.0012C64.2901 13.9155 64.2107 13.8281 64.1366 13.7387C63.8405 13.3811 63.631 12.9932 63.5057 12.5691C63.4744 12.4631 63.4484 12.3548 63.4276 12.2442C63.3859 12.023 63.3653 11.7924 63.3653 11.5517C63.3653 11.4304 63.3704 11.3118 63.3808 11.1956C63.3911 11.0795 63.4066 10.9657 63.4274 10.8545ZM60.3785 11.8489C60.3985 12.285 60.4581 12.7062 60.5571 13.1116C60.6562 13.5171 60.7947 13.9067 60.9723 14.2801C61.0166 14.3734 61.0636 14.4658 61.1129 14.5571C61.2115 14.7396 61.32 14.9181 61.4381 15.0923C61.6743 15.4408 61.9497 15.7723 62.2637 16.0865C62.8137 16.636 63.4169 17.067 64.0704 17.3781C64.3505 17.5114 64.6396 17.6226 64.9378 17.7118C65.5341 17.89 66.1659 17.9796 66.8311 17.9796C67.4969 17.9796 68.129 17.89 68.7255 17.7118C69.0237 17.6226 69.313 17.5114 69.593 17.3781C70.2465 17.067 70.8496 16.636 71.3988 16.0865C72.0267 15.4586 72.5 14.7604 72.8164 13.9973C73.0537 13.4252 73.2027 12.8165 73.2623 12.1733C73.2823 11.9591 73.2922 11.7409 73.2922 11.5191C73.2922 11.0753 73.2523 10.6464 73.173 10.2331C72.9348 8.99318 72.3407 7.89352 71.3988 6.95143C71.085 6.63745 70.7535 6.36221 70.4052 6.12588C70.318 6.06663 70.2299 6.00997 70.1408 5.95589C69.1596 5.35958 68.0515 5.05835 66.8311 5.05835C65.6114 5.05835 64.5042 5.35958 63.5227 5.95589C63.4334 6.00997 63.3453 6.06663 63.2581 6.12588C62.9096 6.36221 62.578 6.63745 62.2637 6.95143C61.8711 7.34418 61.5392 7.76406 61.2681 8.21009C61.1056 8.47774 60.965 8.75475 60.8463 9.04096C60.7674 9.23177 60.6981 9.42645 60.6387 9.62517C60.5793 9.82405 60.5298 10.0268 60.4902 10.2333C60.4108 10.6465 60.3711 11.0753 60.3711 11.5191C60.3711 11.63 60.3737 11.7399 60.3785 11.8489Z" fill="#00413A"/>
<path fill-rule="evenodd" clip-rule="evenodd" d="M94.3522 9.93204C94.3438 9.84245 94.3335 9.75367 94.3211 9.66553C94.296 9.48941 94.2629 9.31652 94.2215 9.14669C94.2006 9.06178 94.1779 8.97768 94.153 8.89438C94.1033 8.72779 94.0453 8.56442 93.9791 8.40428C93.9461 8.32438 93.9109 8.24511 93.8737 8.16666C93.6134 7.61813 93.2526 7.11027 92.7925 6.64632L92.7906 6.64487C92.659 6.51331 92.5237 6.38981 92.3849 6.27455C92.1071 6.04371 91.8147 5.84564 91.5083 5.68017C90.7422 5.26675 89.8887 5.05835 88.9561 5.05835C87.9717 5.05835 87.0886 5.2787 86.3135 5.71617C86.2361 5.75992 86.1595 5.80576 86.0842 5.85387C85.7075 6.09424 85.358 6.38885 85.0366 6.73721C84.7133 6.38885 84.3624 6.09424 83.9844 5.85387C83.9089 5.80576 83.8322 5.75992 83.7546 5.71617C82.9773 5.2787 82.093 5.05835 81.1084 5.05835C80.1226 5.05835 79.2254 5.29291 78.4261 5.75524C78.0159 5.99254 77.6309 6.28876 77.2742 6.64632C77.0219 6.90025 76.8002 7.16758 76.6078 7.44733C76.5813 7.48575 76.556 7.52482 76.5306 7.56372C76.4275 7.72241 76.3337 7.88513 76.2494 8.05172C75.9593 8.62463 75.7805 9.24291 75.7157 9.90396C75.7141 9.91945 75.7125 9.93495 75.7112 9.95061C75.6957 10.1238 75.6875 10.2999 75.6875 10.4788V16.4985C75.6875 16.6887 75.7222 16.8685 75.7868 17.0348C75.7997 17.068 75.8142 17.1005 75.8297 17.1326C75.8483 17.1714 75.8685 17.2091 75.8906 17.2459C75.9303 17.312 75.974 17.3759 76.0247 17.4354C76.056 17.4723 76.0896 17.5078 76.1251 17.5418C76.1598 17.5765 76.1963 17.6091 76.2343 17.6398C76.2465 17.6498 76.2599 17.6582 76.2725 17.6677C76.2988 17.6876 76.3248 17.7076 76.3524 17.7255C76.3686 17.736 76.3858 17.7449 76.4025 17.7548C76.4276 17.7696 76.4523 17.7851 76.4783 17.7985C76.4971 17.8082 76.5166 17.8161 76.5356 17.825C76.5607 17.8366 76.5852 17.8487 76.6107 17.8589C76.6311 17.8671 76.652 17.8734 76.6729 17.8807C76.698 17.8894 76.7229 17.8989 76.7484 17.9063C76.77 17.9128 76.7922 17.9173 76.8141 17.9226C76.8395 17.9289 76.8645 17.9359 76.8901 17.9407C76.9127 17.9452 76.9355 17.9478 76.9583 17.9512C76.9838 17.9551 77.0091 17.9594 77.0346 17.962C77.0579 17.9643 77.0811 17.9649 77.1044 17.9662C77.1299 17.9677 77.1552 17.9696 77.1807 17.9698C77.1848 17.9698 77.1888 17.9704 77.193 17.9704C77.2148 17.9704 77.2366 17.9683 77.2585 17.9674C77.2803 17.9665 77.3023 17.9662 77.3241 17.9645C77.3501 17.9622 77.376 17.9583 77.402 17.9548C77.4235 17.9519 77.4451 17.9498 77.4666 17.9459C77.4929 17.9412 77.5189 17.9346 77.5449 17.9285C77.5657 17.9238 77.5865 17.9197 77.6072 17.9141C77.6332 17.9068 77.6589 17.8975 77.6845 17.8887C77.7046 17.882 77.7249 17.8761 77.7446 17.8686C77.7706 17.8586 77.7956 17.8464 77.8209 17.8348C77.8398 17.8263 77.859 17.8188 77.8776 17.8095C77.9036 17.7962 77.9286 17.7807 77.954 17.7659C77.9709 17.756 77.9883 17.7472 78.005 17.7365C78.0319 17.7192 78.0576 17.6994 78.0836 17.68C78.0975 17.6697 78.112 17.6605 78.1257 17.6495C78.1628 17.6195 78.1988 17.5872 78.2334 17.553C78.235 17.5514 78.2368 17.5501 78.2384 17.5484C78.4565 17.3389 78.5973 17.0821 78.6541 16.7951C78.673 16.6993 78.6826 16.6004 78.6826 16.4985V10.4788C78.6826 10.3101 78.6972 10.1485 78.7266 9.99355C78.7411 9.91606 78.7595 9.84019 78.7816 9.7661C78.8699 9.46907 79.0174 9.19771 79.226 8.94781C79.2782 8.88534 79.3342 8.82416 79.3939 8.76443C79.6331 8.52487 79.8929 8.34714 80.1773 8.22913C80.3195 8.17005 80.4679 8.12614 80.6229 8.09676C80.778 8.06754 80.9396 8.05301 81.1084 8.05301C81.7839 8.05301 82.3455 8.28563 82.8239 8.76395C82.8291 8.76911 82.8333 8.7746 82.8385 8.77977C82.9371 8.88034 83.024 8.98478 83.1014 9.09278C83.1308 9.13362 83.1581 9.17527 83.1844 9.21724C83.418 9.58982 83.5352 10.0061 83.5352 10.4788V16.4985C83.5352 16.6887 83.5701 16.8685 83.6346 17.0348C83.6475 17.068 83.6621 17.1005 83.6774 17.1326C83.696 17.1714 83.7162 17.2091 83.7383 17.2459C83.778 17.312 83.8217 17.3759 83.8724 17.4354C83.9039 17.4723 83.9373 17.5078 83.9728 17.5418C84.008 17.577 84.0448 17.61 84.0832 17.6408C84.0949 17.6501 84.1075 17.6579 84.1192 17.6668C84.1468 17.6874 84.1741 17.7084 84.203 17.727C84.2169 17.7359 84.2318 17.7431 84.246 17.7515C84.2739 17.7682 84.3017 17.7853 84.3307 17.8C84.3469 17.8082 84.3638 17.8146 84.3801 17.8221C84.4082 17.8351 84.436 17.8485 84.4647 17.8598C84.4829 17.8669 84.5017 17.8721 84.5201 17.8784C84.548 17.8881 84.5756 17.8984 84.6042 17.9065C84.6239 17.9121 84.6441 17.9159 84.6639 17.9207C84.6917 17.9275 84.7191 17.9349 84.7472 17.9401C84.7685 17.9441 84.7901 17.9462 84.8116 17.9493C84.8386 17.9531 84.8655 17.9578 84.8928 17.9604C84.9151 17.9625 84.9375 17.9627 84.96 17.9638C84.9864 17.9653 85.0129 17.9674 85.0394 17.9675C85.0412 17.9675 85.0428 17.9677 85.0444 17.9677C85.0686 17.9677 85.0927 17.9656 85.1167 17.9645C85.1393 17.9635 85.1621 17.9633 85.1847 17.9614C85.2108 17.9591 85.2368 17.9548 85.2628 17.9512C85.2848 17.9481 85.3067 17.9462 85.3283 17.9422C85.355 17.9375 85.381 17.9304 85.4073 17.9243C85.4279 17.9194 85.4489 17.9155 85.4693 17.9099C85.4961 17.9023 85.5222 17.8926 85.5485 17.8836C85.5677 17.8771 85.5873 17.8716 85.606 17.8642C85.633 17.8537 85.6588 17.841 85.6851 17.8288C85.7024 17.8209 85.7203 17.814 85.7374 17.8053C85.7645 17.7916 85.7904 17.7753 85.8165 17.7596C85.8315 17.7506 85.8472 17.7428 85.8619 17.7331C85.8903 17.7146 85.9171 17.6936 85.944 17.6727C85.9553 17.664 85.9673 17.6566 85.9783 17.6476C86.0123 17.6193 86.0448 17.5888 86.0761 17.5568C86.079 17.5539 86.0824 17.5515 86.0851 17.5484C86.3032 17.3389 86.4441 17.0821 86.501 16.7951C86.5198 16.6993 86.5294 16.6004 86.5294 16.4985V10.4788C86.5294 9.80436 86.7625 9.24371 87.2418 8.76395C87.6603 8.34536 88.1419 8.115 88.7083 8.06383C88.7892 8.05657 88.8719 8.05301 88.9561 8.05301C89.2977 8.05301 89.6093 8.11113 89.8953 8.22913C90.1099 8.3176 90.31 8.4398 90.4976 8.59638C90.5603 8.64853 90.6213 8.70454 90.6812 8.76443C90.7411 8.82432 90.7971 8.8855 90.8494 8.94798C90.9218 9.03466 90.9843 9.12506 91.0421 9.21708C91.0876 9.28956 91.1285 9.36365 91.165 9.43953C91.2039 9.52056 91.2381 9.6037 91.267 9.68893C91.3498 9.93414 91.3934 10.196 91.3934 10.4788V16.4985C91.3934 16.6004 91.4031 16.6993 91.4218 16.7949C91.4686 17.0337 91.5724 17.25 91.7262 17.4309C91.7569 17.4671 91.7897 17.502 91.8244 17.5352C91.8673 17.5799 91.913 17.6203 91.9598 17.6584C92.2176 17.8684 92.5326 17.9795 92.8958 17.9795C93.148 17.9795 93.3849 17.9204 93.5969 17.8064C93.6392 17.7836 93.6807 17.7586 93.7209 17.7315C93.8016 17.6773 93.8778 17.6142 93.949 17.5428C94.0402 17.4522 94.1157 17.3521 94.1784 17.2454C94.2121 17.1881 94.2431 17.1294 94.2683 17.0679C94.3403 16.8922 94.3772 16.7006 94.3772 16.4985V10.4788C94.3772 10.2935 94.3688 10.1112 94.3522 9.93204Z" fill="#00413A"/>
<path fill-rule="evenodd" clip-rule="evenodd" d="M43.5109 20.2777C43.4545 19.9912 43.3144 19.7311 43.0949 19.5116C42.8088 19.237 42.4508 19.0916 42.0586 19.0916H42.0254C41.6823 19.0916 41.3653 19.2029 41.0954 19.4193C41.0568 19.4501 41.0192 19.4832 40.9826 19.5182C40.9201 19.5808 40.8652 19.6477 40.8156 19.7173C40.7236 19.8467 40.6532 19.9872 40.608 20.1371C40.5801 20.2293 40.5614 20.3249 40.552 20.4232C40.5473 20.4723 40.5449 20.5221 40.5449 20.5725V35.0191C40.5449 35.0701 40.5473 35.1203 40.552 35.1697C40.5806 35.4664 40.6938 35.735 40.8821 35.956C40.9136 35.993 40.947 36.0285 40.9826 36.0626C41.0184 36.0984 41.0552 36.132 41.0933 36.1636C41.2076 36.2582 41.3322 36.3336 41.467 36.3888C41.6465 36.4624 41.8441 36.5002 42.0586 36.5002C42.1576 36.5002 42.2545 36.4907 42.3482 36.4721C42.4422 36.4537 42.5331 36.4259 42.6204 36.3896C42.7951 36.3168 42.9552 36.2091 43.0949 36.0692C43.3439 35.8298 43.4915 35.5286 43.5288 35.1912C43.5351 35.1347 43.5391 35.0775 43.5391 35.0191V20.5725C43.5391 20.5221 43.5367 20.4723 43.532 20.4232C43.5273 20.3739 43.5202 20.3255 43.5109 20.2777Z" fill="#00413A"/>
<path fill-rule="evenodd" clip-rule="evenodd" d="M48.4961 30.0712C48.4961 29.1012 48.8267 28.2961 49.5039 27.6121C49.7608 27.3553 50.0344 27.148 50.3272 26.9892C50.8152 26.7244 51.3565 26.5943 51.962 26.5943C52.4466 26.5943 52.8889 26.6775 53.2951 26.8463C53.4982 26.9308 53.692 27.0365 53.8779 27.164C54.0189 27.261 54.1537 27.3745 54.2856 27.4967C54.3273 27.5353 54.3699 27.571 54.4106 27.6121C54.6674 27.869 54.8747 28.1426 55.0335 28.4356C55.0865 28.5333 55.1339 28.633 55.1761 28.7349C55.2468 28.9058 55.2989 29.0844 55.3397 29.2681C55.3964 29.5231 55.4279 29.7895 55.4279 30.0712C55.4279 30.5524 55.3448 30.9931 55.1761 31.3993C55.1339 31.5008 55.0865 31.6002 55.0335 31.6974C54.8747 31.9893 54.6674 32.2624 54.4106 32.5193L54.4088 32.5207C54.2395 32.6917 54.0624 32.8407 53.877 32.968C53.4247 33.2786 52.9215 33.4586 52.359 33.5158C52.3401 33.5177 52.3217 33.5204 52.3026 33.5221C52.1914 33.5317 52.0781 33.5371 51.962 33.5371C51.3949 33.5371 50.8863 33.4197 50.4239 33.1887C50.0954 33.0245 49.7895 32.8045 49.5059 32.5207C48.8267 31.8354 48.4961 31.034 48.4961 30.0712ZM58.3039 28.7526C58.2245 28.3392 58.1055 27.9416 57.9473 27.56C57.6309 26.7971 57.1576 26.0989 56.5296 25.471C56.4546 25.3959 56.3784 25.3232 56.3014 25.2527C56.2875 25.24 56.2735 25.2278 56.2596 25.2153C56.1249 25.0939 55.9872 24.9794 55.8466 24.8714C55.805 24.8393 55.7629 24.8081 55.7206 24.7773C54.6325 23.9818 53.3727 23.5779 51.962 23.5779C50.7423 23.5779 49.635 23.8789 48.6535 24.4754C48.5643 24.5295 48.4761 24.5862 48.3889 24.6452C48.083 24.8528 47.7909 25.0921 47.5113 25.3594C47.4724 25.3967 47.433 25.4325 47.3945 25.471C46.374 26.4918 45.7625 27.6975 45.5689 29.0657C45.5541 29.1709 45.5417 29.2771 45.5318 29.3843C45.512 29.5985 45.502 29.8166 45.502 30.0384C45.502 30.1495 45.5045 30.2594 45.5094 30.3684C45.5443 31.1318 45.7007 31.849 45.9772 32.5165C46.2934 33.2796 46.7666 33.9778 47.3945 34.606C47.7089 34.92 48.0404 35.1954 48.3889 35.4318C48.4761 35.4908 48.5643 35.5473 48.6535 35.6016C49.1238 35.8875 49.6237 36.1039 50.1503 36.2534C50.3012 36.2964 50.4543 36.3337 50.6097 36.3653C50.6469 36.3729 50.684 36.3805 50.7213 36.3873C51.1208 36.4612 51.5344 36.499 51.962 36.499C52.604 36.499 53.2144 36.4145 53.7921 36.2487C54.8117 35.9561 55.7285 35.4079 56.5296 34.606C57.7856 33.35 58.423 31.8137 58.423 30.0384C58.423 29.5947 58.3832 29.1659 58.3039 28.7526Z" fill="#00413A"/>
<path fill-rule="evenodd" clip-rule="evenodd" d="M78.2136 19.58C78.1779 19.5441 78.1408 19.5104 78.1027 19.4789C77.9883 19.3842 77.8636 19.3089 77.7305 19.2537C77.5532 19.1801 77.3611 19.1423 77.1593 19.1423H77.1375C76.9173 19.1423 76.7109 19.1887 76.5239 19.2747C76.3649 19.3478 76.22 19.4492 76.0947 19.5795C76.0232 19.651 75.9601 19.7274 75.9057 19.8082C75.8511 19.8889 75.8054 19.9739 75.7686 20.0626C75.695 20.24 75.6571 20.4322 75.6571 20.6343V31.0779C75.6571 31.3853 75.6061 31.6681 75.5081 31.9312C75.4858 31.9914 75.4604 32.0505 75.4328 32.1085C75.4027 32.1719 75.3696 32.2341 75.3332 32.2951C75.2288 32.4701 75.1013 32.6363 74.9447 32.7928C74.4664 33.2716 73.9018 33.5042 73.2198 33.5042C72.7977 33.5042 72.4204 33.4133 72.08 33.2281C72.0118 33.1912 71.9453 33.1503 71.8801 33.1058C71.7497 33.0165 71.6249 32.9121 71.5054 32.7923C71.026 32.3135 70.7931 31.7527 70.7931 31.0779V25.0695C70.7931 24.7665 70.7078 24.4856 70.5474 24.2466C70.4938 24.1668 70.4319 24.0916 70.362 24.022C70.3278 23.9863 70.2917 23.9529 70.254 23.9214C70.2434 23.9126 70.2318 23.9051 70.2209 23.8966C70.1933 23.8749 70.1657 23.8533 70.1367 23.8339C70.1225 23.8244 70.1075 23.8167 70.0929 23.8078C70.066 23.791 70.0392 23.7741 70.0111 23.7592C69.9946 23.7506 69.9775 23.7437 69.9609 23.7356C69.9336 23.7226 69.9066 23.7092 69.8787 23.6977C69.8603 23.6903 69.8413 23.6846 69.8225 23.6778C69.7954 23.668 69.7685 23.6577 69.7407 23.6494C69.7208 23.6436 69.7005 23.6394 69.6805 23.6344C69.6532 23.6275 69.6262 23.62 69.5986 23.6147C69.5775 23.6105 69.556 23.6081 69.5347 23.6049C69.5078 23.6007 69.4808 23.596 69.4535 23.5933C69.4312 23.591 69.4088 23.5905 69.3864 23.5894C69.3599 23.5878 69.3334 23.5857 69.3066 23.5855C69.3034 23.5855 69.3 23.585 69.2966 23.585C69.2742 23.585 69.2517 23.5871 69.2293 23.5881C69.2069 23.5891 69.1846 23.5892 69.1621 23.5912C69.1357 23.5934 69.1093 23.5978 69.0829 23.6013C69.0612 23.6042 69.0396 23.6065 69.0181 23.6104C68.9912 23.6152 68.9647 23.6221 68.9379 23.6284C68.9172 23.6333 68.8964 23.6372 68.8759 23.643C68.8486 23.6506 68.822 23.6604 68.7952 23.6696C68.7758 23.6762 68.7561 23.6819 68.7369 23.6893C68.7097 23.7 68.6832 23.7129 68.6564 23.7251C68.6383 23.7334 68.6199 23.7405 68.6021 23.7497C68.5749 23.7634 68.5487 23.7797 68.5222 23.7954C68.5059 23.805 68.489 23.8134 68.473 23.8239C68.4438 23.8428 68.4159 23.8641 68.3878 23.8854C68.3755 23.8946 68.3627 23.9025 68.3508 23.9122C68.3112 23.944 68.2731 23.9783 68.2365 24.0147C68.1122 24.139 68.015 24.2788 67.9429 24.4296C67.8491 24.6259 67.7989 24.8411 67.7989 25.0695V31.0779C67.7989 31.5322 67.6904 31.9338 67.4752 32.2948C67.3709 32.4696 67.2437 32.6358 67.0875 32.7923C66.9305 32.9492 66.7638 33.0769 66.5882 33.1815C66.2275 33.3962 65.8262 33.5042 65.3721 33.5042C64.9506 33.5042 64.5735 33.4131 64.2329 33.228C64.0285 33.1169 63.8374 32.9718 63.6576 32.7923C63.4782 32.6129 63.3334 32.422 63.2224 32.2177C63.1483 32.0815 63.0893 31.9394 63.0451 31.7909C62.9789 31.5682 62.9462 31.331 62.9462 31.0779V25.0695C62.9462 25.019 62.9439 24.9693 62.9392 24.92C62.9063 24.5757 62.7589 24.2651 62.5087 24.0152C62.5067 24.0134 62.5045 24.0118 62.5026 24.0099C62.4696 23.9773 62.4354 23.9461 62.3996 23.9171C62.3862 23.9063 62.3715 23.8969 62.3576 23.8864C62.3326 23.8675 62.3077 23.8483 62.2816 23.8312C62.2651 23.8204 62.2475 23.8113 62.2307 23.8013C62.2058 23.7865 62.1815 23.771 62.1558 23.7577C62.1372 23.7481 62.1177 23.7401 62.0987 23.7313C62.0738 23.7196 62.0491 23.7074 62.0236 23.6971C62.0036 23.689 61.9829 23.6827 61.9624 23.6754C61.9371 23.6665 61.9119 23.6569 61.8861 23.6493C61.8649 23.643 61.8431 23.6384 61.8216 23.6331C61.796 23.6267 61.7706 23.6197 61.7446 23.6146C61.7224 23.6102 61.6998 23.6076 61.6773 23.6042C61.6517 23.6004 61.6263 23.5958 61.6005 23.5933C61.5772 23.591 61.554 23.5903 61.5309 23.5891C61.5054 23.5876 61.4801 23.5857 61.4546 23.5855C61.4507 23.5853 61.4468 23.5849 61.4429 23.5849C61.4205 23.5849 61.3981 23.587 61.3756 23.5879C61.3542 23.5889 61.3327 23.5891 61.3112 23.5908C61.2846 23.5933 61.2581 23.5973 61.2315 23.601C61.2105 23.6039 61.1893 23.606 61.1683 23.6097C61.1414 23.6146 61.1149 23.6215 61.0881 23.6278C61.0678 23.6326 61.0474 23.6365 61.0273 23.6422C61.0003 23.6497 60.9738 23.6594 60.9472 23.6686C60.9278 23.6753 60.9081 23.6809 60.8891 23.6885C60.8621 23.699 60.836 23.7116 60.8096 23.7237C60.7914 23.7321 60.7728 23.7395 60.7549 23.7485C60.7278 23.7624 60.7018 23.7786 60.6755 23.7942C60.659 23.8039 60.6421 23.8125 60.6261 23.823C60.5972 23.8417 60.5696 23.8628 60.5418 23.8838C60.5292 23.8933 60.516 23.9016 60.5036 23.9116C60.464 23.9436 60.4256 23.9779 60.3888 24.0147C60.2645 24.139 60.1672 24.2788 60.0952 24.4296C60.0012 24.6259 59.9512 24.8411 59.9512 25.0695V31.0779C59.9512 32.196 60.2516 33.2013 60.8463 34.0784C60.9349 34.2093 61.0313 34.3368 61.1332 34.4619C61.2045 34.5498 61.2783 34.6363 61.3561 34.7212C61.4152 34.7856 61.4759 34.8494 61.5387 34.9122C61.9334 35.307 62.3613 35.6289 62.8207 35.8769C62.9738 35.9595 63.1305 36.0341 63.2905 36.1003C63.4506 36.1666 63.6142 36.2246 63.7811 36.2745C63.8645 36.2993 63.9488 36.3221 64.0339 36.3429C64.4594 36.4467 64.9059 36.4988 65.3721 36.4988C66.1597 36.4988 66.8831 36.3586 67.539 36.0795C68.0308 35.8702 68.4848 35.5831 68.899 35.2185C69.0372 35.0972 69.1709 34.967 69.3002 34.8284C69.686 35.2444 70.1121 35.5832 70.5771 35.8444C70.7322 35.9314 70.8915 36.0097 71.0551 36.0795C71.7095 36.3586 72.4322 36.4988 73.2198 36.4988C73.6691 36.4988 74.0998 36.4494 74.5116 36.3529C74.6333 36.3243 74.7532 36.2914 74.8716 36.2544C74.9941 36.2162 75.1148 36.1734 75.2338 36.1261C75.3366 36.0853 75.4387 36.0423 75.5387 35.9947C75.6172 35.9576 75.6947 35.9182 75.7712 35.8769C76.2309 35.6289 76.6592 35.307 77.0542 34.9122C78.1076 33.8584 78.6408 32.5684 78.6408 31.0779V20.6343C78.6408 20.2832 78.5292 19.9616 78.3127 19.6922C78.2819 19.6537 78.2488 19.6163 78.2136 19.58Z" fill="#00413A"/>
<path fill-rule="evenodd" clip-rule="evenodd" d="M36.5559 19.7669C36.3948 19.6579 36.2124 19.5788 36.017 19.5344C35.9985 19.5302 35.9801 19.5262 35.9615 19.5226C35.8651 19.5044 35.766 19.4939 35.6645 19.4939H31.9598C31.4005 19.4939 30.8605 19.5772 30.3502 19.7301C30.3083 19.7427 30.2666 19.7557 30.2251 19.7693C29.9271 19.8662 29.6403 19.9875 29.3665 20.1307C29.3098 20.1604 29.2538 20.1909 29.1984 20.2224C28.9122 20.3847 28.6407 20.57 28.3886 20.7782C28.2497 20.8928 28.1165 21.0139 27.9893 21.1411C26.972 22.1583 26.3418 23.5627 26.3418 25.1115V34.901C26.3418 35.341 26.5207 35.7399 26.8095 36.029C26.8816 36.1012 26.9607 36.1666 27.0456 36.2241C27.3002 36.3963 27.6071 36.497 27.937 36.497C28.267 36.497 28.5739 36.3963 28.8288 36.2241C28.9986 36.1093 29.1453 35.9625 29.2601 35.7927C29.3176 35.7078 29.367 35.6171 29.4075 35.5215C29.4277 35.4739 29.4456 35.425 29.4612 35.3751C29.5079 35.2253 29.5331 35.066 29.5331 34.901V28.9094H33.3675C33.5727 28.9094 33.7683 28.869 33.9486 28.7982C34.0098 28.774 34.07 28.7476 34.1273 28.7163C34.1984 28.6777 34.265 28.6324 34.3291 28.5838C34.4688 28.4776 34.5916 28.3505 34.6899 28.2049C34.776 28.0775 34.8441 27.9371 34.8907 27.7873C34.9374 27.6375 34.9626 27.4782 34.9626 27.3132C34.9626 27.0932 34.9179 26.8835 34.8371 26.6927C34.7966 26.5972 34.7472 26.5065 34.6899 26.4216C34.6065 26.2981 34.5057 26.1874 34.3919 26.0918C34.1146 25.8587 33.7574 25.7176 33.3675 25.7176H29.5331V25.1115C29.5331 24.8606 29.5713 24.6186 29.6424 24.3908C29.6659 24.315 29.6934 24.2407 29.7241 24.1681C29.8085 23.9687 29.9205 23.7842 30.0527 23.6163C30.0671 23.5981 30.0803 23.579 30.0953 23.5611C30.5407 23.0266 31.211 22.6855 31.9598 22.6855H35.6645C36.1045 22.6855 36.5033 22.5066 36.7921 22.2177C36.8281 22.1817 36.8624 22.1437 36.895 22.1044C36.9275 22.065 36.9582 22.024 36.9869 21.9815C37.1304 21.7692 37.224 21.5208 37.2513 21.2528C37.2568 21.1994 37.2595 21.145 37.2595 21.0899C37.2595 21.0349 37.2568 20.9807 37.2513 20.9271C37.2022 20.4447 36.9378 20.0253 36.5559 19.7669Z" fill="#00413A"/>
<path fill-rule="evenodd" clip-rule="evenodd" d="M35.3903 13.0239C35.2063 13.4665 34.9287 13.8717 34.5548 14.2456C33.8166 14.9906 32.9441 15.353 31.8875 15.353C30.8309 15.353 29.9547 14.9906 29.2089 14.2456C29.1648 14.2012 29.1266 14.1548 29.0854 14.1096C28.4326 13.3935 28.1101 12.5638 28.1101 11.5763C28.1101 11.1799 28.1606 10.8086 28.2628 10.4602C28.4331 9.87956 28.7464 9.36234 29.2079 8.89678C29.3011 8.80331 29.3963 8.71598 29.4938 8.63462C29.5912 8.55326 29.6908 8.47787 29.7925 8.4083C30.4032 7.99133 31.0944 7.78744 31.8875 7.78744C32.9441 7.78744 33.8166 8.14985 34.5558 8.89678C34.7425 9.08339 34.9051 9.27824 35.0441 9.48196C35.3916 9.99111 35.5912 10.5559 35.648 11.1886C35.6594 11.3151 35.6649 11.4443 35.6649 11.5763C35.6649 12.1008 35.5744 12.5812 35.3903 13.0239ZM38.0375 9.66147C38.0081 9.56284 37.9761 9.46517 37.9417 9.36832C37.8728 9.17492 37.7943 8.98557 37.706 8.80025C37.662 8.70743 37.6153 8.6159 37.5664 8.52517C37.2724 7.98132 36.8911 7.47411 36.4233 7.00613C36.3454 6.92816 36.2663 6.85261 36.186 6.77948C36.106 6.70635 36.0246 6.63549 35.9424 6.5672C35.6131 6.2939 35.2669 6.05902 34.9043 5.86305C34.8136 5.81414 34.722 5.76748 34.6292 5.72341C33.7951 5.32614 32.8788 5.12597 31.8875 5.12597C30.4763 5.12597 29.2079 5.54019 28.1101 6.35702V1.82023C28.1101 1.56807 28.0445 1.33949 27.9165 1.13544C27.8621 1.04876 27.7974 0.965945 27.7199 0.888297C27.6881 0.857464 27.6553 0.828569 27.6217 0.80161C27.3873 0.612738 27.1134 0.517334 26.8072 0.517334H26.7736C26.5371 0.517334 26.3205 0.57561 26.1247 0.68974C26.0307 0.744464 25.9409 0.810973 25.857 0.892172C25.7062 1.04295 25.6002 1.21406 25.5375 1.40229C25.4939 1.53337 25.4707 1.67252 25.4707 1.82023V11.5773C25.4738 12.2116 25.5601 12.8145 25.7266 13.385C25.7616 13.5049 25.7989 13.6239 25.8412 13.7411C25.8759 13.8373 25.913 13.9326 25.9524 14.0267C26.2686 14.7805 26.7395 15.4698 27.3633 16.0893C27.5181 16.2444 27.6773 16.3898 27.841 16.5258C28.4137 17.0015 29.0396 17.3597 29.7153 17.5991C30.3909 17.8383 31.1162 17.9588 31.8875 17.9588C32.5484 17.9588 33.176 17.8698 33.7683 17.6927C33.9656 17.6338 34.1591 17.5649 34.3485 17.4864C34.7274 17.3292 35.0902 17.1331 35.4362 16.8982C35.6092 16.7808 35.7781 16.6538 35.9426 16.5169C36.1073 16.3802 36.2675 16.2337 36.4233 16.0778C36.8911 15.61 37.2724 15.1031 37.5664 14.5592C37.6153 14.4687 37.662 14.377 37.706 14.2843C37.7943 14.099 37.8728 13.9095 37.9417 13.7161C37.9761 13.6194 38.0081 13.5217 38.0375 13.4229C38.0965 13.2257 38.1458 13.0242 38.1852 12.819C38.2639 12.4087 38.3035 11.9827 38.3035 11.542C38.3035 11.1014 38.2639 10.6756 38.1852 10.2652C38.1458 10.0602 38.0965 9.8589 38.0375 9.66147Z" fill="#00413A"/>
<path fill-rule="evenodd" clip-rule="evenodd" d="M16.7027 15.1652C14.921 14.2622 12.935 13.7798 10.92 13.7798H3.48944C3.12849 13.7798 2.83485 13.4862 2.83485 13.1252V3.93991H10.92C14.8355 3.93991 18.0207 7.12539 18.0207 11.0407C18.0207 12.5431 17.5537 13.9756 16.7027 15.1652ZM10.92 1.10522H0V13.1252C0 15.0523 1.56231 16.6145 3.48944 16.6145H10.92C13.2706 16.6145 15.4304 17.4308 17.1317 18.7954C19.4021 16.9745 20.8554 14.1774 20.8554 11.0407C20.8554 5.55339 16.4073 1.10522 10.92 1.10522Z" fill="#00413A"/>
<path fill-rule="evenodd" clip-rule="evenodd" d="M18.0208 26.5494C18.0208 30.4647 14.8355 33.65 10.9202 33.65H2.83485V27.7375C2.83485 25.5719 4.59669 23.8103 6.76209 23.8103H10.9202C12.9348 23.8103 14.9212 23.3278 16.7027 22.4247C17.5538 23.6145 18.0208 25.047 18.0208 26.5494ZM6.76209 20.9754C3.0276 20.9754 0 24.003 0 27.7375V36.4849H10.9202C16.4073 36.4849 20.8555 32.0365 20.8555 26.5494C20.8555 23.4125 19.4021 20.6156 17.1318 18.7947C15.4306 20.1591 13.2706 20.9754 10.9202 20.9754H6.76209Z" fill="#00413A"/>
</svg>
